<?xml version="1.0" standalone="no"?>
<!DOCTYPE svg PUBLIC "-//W3C//DTD SVG 20010904//EN">
<svg version="1.0" xmlns="http://www.w3.org/2000/svg"
 width="512.000000pt" height="512.000000pt" viewBox="0 0 512.000000 512.000000"
 preserveAspectRatio="xMidYMid meet">

<g transform="translate(0.000000,512.000000) scale(0.100000,-0.100000)" stroke="none">
<path d="M2480 3824 c-42 -18 -86 -58 -108 -99 -15 -26 -18 -86 -22 -490 l-5
-460 -460 -5 c-503 -5 -487 -3 -547 -67 -76 -80 -76 -206 0 -286 60 -64 44
-62 547 -67 l460 -5 5 -460 c5 -503 3 -487 67 -547 80 -76 206 -76 286 0 64
60 62 44 67 547 l5 460 460 5 c503 5 487 3 547 67 76 80 76 206 0 286 -60 64
-44 62 -547 67 l-460 5 -5 460 c-5 503 -3 487 -67 547 -58 56 -151 73 -223 42z"/>
</g>
</svg>
