<?xml version="1.0" standalone="no"?>
<!DOCTYPE svg PUBLIC "-//W3C//DTD SVG 20010904//EN">
<svg version="1.0" xmlns="http://www.w3.org/2000/svg"
 width="512.000000pt" height="512.000000pt" viewBox="0 0 512.000000 512.000000"
 preserveAspectRatio="xMidYMid meet">

<g transform="translate(0.000000,512.000000) scale(0.100000,-0.100000)" stroke="none">
<path d="M1355 5113 c-201 -24 -375 -76 -544 -163 -411 -213 -701 -605 -787
-1065 -18 -94 -19 -171 -19 -1325 0 -1368 -3 -1301 71 -1528 145 -444 512
-811 956 -956 228 -74 159 -71 1538 -71 l1235 0 105 23 c463 102 829 377 1039
782 68 130 109 247 143 400 l23 105 0 1235 c0 1164 -1 1241 -19 1335 -107 576
-532 1036 -1093 1185 -182 49 -210 50 -1453 48 -641 0 -1178 -3 -1195 -5z
m2445 -258 c144 -22 233 -50 365 -114 265 -130 457 -325 586 -595 55 -116 83
-211 104 -346 22 -141 22 -2339 0 -2480 -21 -135 -49 -230 -104 -346 -68 -143
-140 -245 -250 -355 -202 -201 -453 -325 -733 -359 -66 -8 -433 -10 -1268 -8
-1088 4 -1181 5 -1250 22 -260 62 -479 184 -648 360 -183 190 -297 423 -337
686 -22 141 -22 2339 0 2480 21 135 49 230 104 346 68 143 140 245 250 355
193 192 428 312 696 354 127 20 2355 20 2485 0z"/>
<path d="M2212 4151 c-23 -4 -46 -12 -51 -17 -12 -12 78 -2216 91 -2229 11
-12 569 -14 611 -2 26 7 27 9 28 85 0 42 19 541 43 1107 37 879 41 1032 29
1045 -12 13 -67 15 -361 17 -191 1 -366 -2 -390 -6z"/>
<path d="M2335 1670 c-88 -4 -168 -11 -177 -15 -17 -7 -18 -32 -18 -340 0
-307 1 -333 18 -341 9 -5 160 -10 335 -12 312 -3 444 5 474 30 11 8 13 76 11
336 l-3 326 -35 7 c-57 11 -432 16 -605 9z"/>
</g>
</svg>
