<?xml version="1.0" standalone="no"?>
<!DOCTYPE svg PUBLIC "-//W3C//DTD SVG 20010904//EN">
<svg version="1.0" xmlns="http://www.w3.org/2000/svg"
 width="512.000000pt" height="512.000000pt" viewBox="0 0 512.000000 512.000000"
 preserveAspectRatio="xMidYMid meet">

<g transform="translate(0.000000,512.000000) scale(0.100000,-0.100000)" stroke="none">
<path d="M3090 3945 c-479 -97 -713 -613 -468 -1030 81 -137 223 -249 383
-302 69 -23 97 -26 205 -26 108 0 136 3 205 26 109 36 197 89 276 168 289 286
271 752 -39 1012 -80 67 -217 132 -321 151 -98 19 -152 19 -241 1z m235 -200
c225 -58 375 -252 375 -483 0 -126 -50 -242 -145 -337 -97 -98 -210 -145 -345
-145 -270 0 -490 220 -490 490 1 314 304 552 605 475z"/>
<path d="M1020 3430 c-68 -12 -121 -60 -140 -128 -6 -24 -10 -268 -10 -677 l0
-639 -67 66 c-101 99 -164 119 -251 77 -77 -38 -115 -124 -92 -210 10 -38 43
-75 243 -277 237 -238 281 -272 348 -272 69 1 109 32 361 286 213 215 247 254
253 287 17 92 -21 173 -99 208 -88 40 -146 20 -257 -88 l-79 -76 0 657 c0 635
-1 658 -20 696 -34 67 -112 104 -190 90z"/>
<path d="M4350 2708 c-50 -19 -96 -61 -508 -472 -388 -386 -457 -460 -482
-511 -25 -49 -34 -92 -55 -243 -32 -237 -32 -252 3 -284 15 -14 34 -27 42 -30
20 -7 396 46 447 62 21 7 56 24 78 38 22 14 234 219 472 456 463 463 467 468
494 595 31 150 -76 334 -226 390 -75 28 -189 28 -265 -1z m210 -191 c30 -16
51 -37 67 -67 28 -52 29 -92 4 -145 -23 -50 -842 -869 -885 -885 -31 -11 -246
-43 -252 -37 -2 2 3 55 12 118 11 81 22 126 39 154 34 58 832 851 875 869 50
22 90 19 140 -7z"/>
<path d="M2987 2389 c-303 -25 -649 -122 -911 -257 -96 -49 -137 -93 -157
-164 -6 -25 -9 -144 -7 -316 3 -263 4 -279 25 -318 25 -47 73 -91 120 -111 25
-10 120 -13 438 -13 l407 0 29 29 c21 22 29 39 29 66 0 27 -8 44 -29 66 l-29
29 -384 0 c-285 0 -387 3 -396 12 -9 9 -12 82 -12 265 l0 253 70 35 c179 90
419 167 645 207 93 16 171 22 350 24 127 2 236 3 243 4 7 0 24 11 37 25 34 33
34 93 1 131 -20 24 -34 29 -97 35 -92 10 -244 9 -372 -2z"/>
</g>
</svg>
