<svg version="1.0" xmlns="http://www.w3.org/2000/svg"
 width="512.000000pt" height="512.000000pt" viewBox="0 0 512.000000 512.000000"
 preserveAspectRatio="xMidYMid meet">

<g transform="translate(0.000000,512.000000) scale(0.100000,-0.100000)" stroke="none">
<path d="M664 5105 c-205 -44 -375 -207 -441 -420 -17 -57 -18 -147 -18 -2070
l0 -2010 22 -70 c59 -186 205 -334 393 -398 l65 -22 1075 -3 c591 -2 1090 0
1109 3 97 18 111 152 19 184 -21 8 -360 11 -1087 11 -1122 0 -1102 -1 -1197
48 -22 11 -59 40 -83 63 -91 91 -121 181 -121 361 l0 118 105 0 104 0 16 -31
c27 -51 86 -109 139 -137 71 -36 179 -37 249 -2 107 54 168 150 168 265 0 115
-67 222 -170 269 -66 30 -179 29 -242 -2 -55 -27 -114 -83 -140 -135 l-19 -37
-105 0 -105 0 0 445 0 445 105 0 104 0 16 -31 c63 -121 202 -188 327 -159 231
56 308 333 138 499 -137 133 -373 91 -461 -82 l-19 -37 -105 0 -105 0 0 445 0
445 105 0 104 0 16 -31 c63 -121 202 -188 327 -159 231 56 308 334 138 499
-137 133 -373 91 -461 -81 l-19 -38 -105 0 -105 0 0 445 0 445 105 0 104 0 16
-31 c27 -51 86 -109 139 -137 71 -36 168 -37 246 -1 239 111 226 446 -20 540
-134 51 -294 -12 -360 -141 l-20 -40 -105 0 -105 0 0 115 c0 62 5 138 11 167
26 120 104 218 217 271 l67 32 1450 3 c1098 2 1461 0 1495 -9 110 -29 202
-105 252 -207 l33 -67 5 -1388 5 -1389 33 -29 c52 -47 119 -34 151 28 8 16 11
399 11 1381 0 1320 -1 1361 -20 1436 -28 110 -74 190 -155 271 -82 82 -183
138 -290 160 -99 21 -2906 21 -3001 0z m282 -790 c55 -38 51 -130 -6 -160 -56
-29 -110 -12 -135 42 -30 63 14 132 85 133 20 0 45 -7 56 -15z m0 -1080 c34
-23 48 -68 34 -109 -27 -83 -137 -89 -175 -9 -30 63 14 132 85 133 20 0 45 -7
56 -15z m0 -1080 c34 -23 48 -68 34 -109 -27 -83 -137 -89 -175 -9 -30 63 14
132 85 133 20 0 45 -7 56 -15z m0 -1080 c77 -53 36 -175 -59 -175 -87 0 -124
118 -54 172 27 21 85 23 113 3z"/>
<path d="M1427 4319 c-32 -19 -50 -75 -37 -115 22 -66 2 -64 687 -64 570 0
620 2 639 18 52 42 55 114 7 152 -25 20 -36 20 -652 20 -427 -1 -632 -4 -644
-11z"/>
<path d="M3094 4315 c-34 -23 -48 -68 -34 -110 20 -62 35 -65 335 -65 298 0
315 3 335 64 13 41 -6 98 -38 115 -14 7 -119 11 -299 11 -228 0 -282 -3 -299
-15z"/>
<path d="M1423 3822 c-33 -26 -46 -68 -33 -108 22 -67 -7 -64 682 -64 683 0
652 -3 678 59 15 38 7 75 -25 107 l-24 24 -628 0 c-580 0 -630 -2 -650 -18z"/>
<path d="M3088 3817 c-34 -32 -42 -60 -28 -101 21 -65 28 -66 335 -66 235 0
279 2 300 16 33 22 48 71 34 111 -21 61 -29 63 -337 63 -279 0 -279 0 -304
-23z"/>
<path d="M1423 3332 c-33 -26 -46 -68 -33 -108 22 -67 -7 -64 683 -64 614 0
625 0 650 20 48 38 45 110 -7 152 -19 16 -69 18 -646 18 -577 0 -627 -2 -647
-18z"/>
<path d="M3088 3327 c-48 -45 -42 -128 11 -157 12 -6 126 -10 296 -10 235 0
279 2 300 16 33 22 48 71 34 111 -21 61 -29 63 -337 63 -279 0 -279 0 -304
-23z"/>
<path d="M1433 2848 c-12 -6 -29 -26 -38 -45 -13 -28 -14 -40 -5 -68 23 -68
-12 -65 681 -65 612 0 627 0 652 20 32 25 43 72 27 111 -25 60 -10 59 -682 58
-411 0 -620 -4 -635 -11z"/>
<path d="M3098 2845 c-36 -20 -54 -76 -38 -116 25 -58 28 -59 335 -59 311 0
314 0 335 65 14 43 -8 96 -46 114 -40 18 -551 14 -586 -4z"/>
<path d="M1433 2358 c-12 -6 -29 -26 -38 -45 -13 -28 -14 -40 -5 -69 24 -72
-8 -69 686 -69 l622 0 26 24 c31 30 42 73 26 112 -25 60 -10 59 -682 58 -411
0 -620 -4 -635 -11z"/>
<path d="M3103 2358 c-12 -6 -29 -26 -39 -46 -21 -44 -10 -87 29 -116 27 -20
40 -21 301 -21 304 0 314 2 336 69 14 44 -7 97 -46 115 -33 15 -550 14 -581
-1z"/>
<path d="M1445 1871 c-36 -15 -60 -51 -60 -91 0 -47 25 -76 74 -91 24 -7 240
-9 639 -7 l604 3 29 33 c16 18 29 44 29 58 0 37 -25 78 -55 92 -30 14 -1226
16 -1260 3z"/>
<path d="M3115 1871 c-64 -27 -81 -110 -32 -158 l27 -28 258 -3 c270 -4 314 1
348 39 29 32 25 93 -9 126 l-27 28 -273 2 c-149 1 -281 -2 -292 -6z"/>
<path d="M3614 1208 c-215 -216 -374 -383 -377 -397 -3 -13 0 -38 7 -55 20
-45 724 -743 759 -751 33 -9 82 10 102 39 8 11 15 38 15 60 0 38 -8 48 -277
318 l-277 278 677 0 677 0 0 100 0 100 -672 0 -673 0 273 273 c267 268 272
274 272 314 0 56 -37 93 -94 93 -41 0 -44 -3 -412 -372z"/>
<path d="M1445 1381 c-64 -27 -81 -110 -32 -158 l27 -28 631 0 631 0 29 33
c38 42 38 82 0 124 l-29 33 -619 2 c-340 1 -627 -2 -638 -6z"/>
<path d="M1454 893 c-67 -13 -92 -110 -41 -160 l27 -28 631 0 631 0 29 33 c38
42 38 82 0 124 l-29 33 -614 1 c-337 1 -623 0 -634 -3z"/>
</g>
</svg>
