<svg version="1.0" xmlns="http://www.w3.org/2000/svg"
 width="512.000000pt" height="512.000000pt" viewBox="0 0 512.000000 512.000000"
 preserveAspectRatio="xMidYMid meet">

<g transform="translate(0.000000,512.000000) scale(0.100000,-0.100000)" stroke="none">
<path d="M4406 4555 c-113 -29 -164 -66 -338 -244 -650 -663 -1370 -1515
-1952 -2309 -81 -112 -152 -202 -157 -200 -4 2 -238 253 -519 558 -281 305
-533 572 -561 592 -73 53 -149 79 -250 85 -140 9 -260 -37 -360 -136 -159
-159 -185 -413 -61 -594 35 -52 1379 -1518 1486 -1621 64 -61 173 -114 265
-129 133 -20 282 27 382 120 29 27 113 139 200 269 629 936 1300 1761 2145
2641 230 240 256 274 289 388 23 77 16 207 -15 287 -46 123 -163 236 -287 279
-78 27 -192 33 -267 14z"/>
</g>
</svg>
