<?xml version="1.0" standalone="no"?>
<!DOCTYPE svg PUBLIC "-//W3C//DTD SVG 20010904//EN">
<svg version="1.0" xmlns="http://www.w3.org/2000/svg"
 width="512.000000pt" height="512.000000pt" viewBox="0 0 512.000000 512.000000"
 preserveAspectRatio="xMidYMid meet">

<g transform="translate(0.000000,512.000000) scale(0.100000,-0.100000)" stroke="none">
<path d="M722 5105 c-82 -18 -153 -52 -227 -108 -90 -68 -356 -343 -404 -416
-106 -164 -116 -362 -30 -554 32 -70 55 -94 736 -777 l703 -706 -704 -699
c-668 -665 -705 -703 -736 -769 -85 -184 -76 -379 28 -551 23 -38 103 -128
221 -246 173 -173 192 -189 275 -230 l89 -44 157 -3 c177 -4 218 6 326 77 38
25 294 276 729 717 369 374 673 679 677 679 4 0 291 -281 639 -624 347 -344
664 -655 704 -691 199 -181 463 -209 690 -72 38 23 128 103 246 221 173 173
189 192 230 275 l44 89 0 172 0 171 -39 80 c-43 87 -24 68 -1019 1054 l-418
414 694 695 c671 674 694 698 726 768 65 145 75 283 31 424 -33 107 -88 180
-283 375 -155 154 -193 186 -254 217 -188 93 -391 86 -568 -21 -57 -34 -191
-164 -1182 -1146 l-243 -241 -697 696 c-676 673 -700 696 -769 727 -130 59
-249 74 -372 47z m206 -370 c26 -11 264 -243 787 -764 413 -412 760 -754 772
-760 30 -15 107 -14 148 3 21 9 308 286 775 748 423 418 759 743 782 756 53
28 134 30 186 3 53 -28 338 -318 357 -363 19 -48 19 -118 0 -166 -11 -26 -243
-264 -764 -787 -412 -412 -754 -760 -760 -772 -16 -31 -14 -119 3 -152 8 -15
353 -362 767 -772 529 -523 757 -756 770 -784 23 -49 24 -114 4 -163 -21 -49
-316 -346 -370 -372 -56 -27 -131 -26 -183 2 -23 13 -359 337 -781 755 -407
403 -755 742 -773 753 -40 24 -126 27 -167 6 -15 -8 -362 -353 -772 -767 -523
-528 -756 -757 -784 -770 -52 -24 -119 -24 -170 1 -54 26 -349 323 -370 372
-22 55 -19 127 7 176 14 25 315 329 767 774 437 431 751 748 762 770 21 41 25
102 8 145 -5 16 -346 364 -769 788 -530 530 -764 771 -775 797 -19 48 -19 118
0 166 21 50 316 348 370 373 49 23 123 24 173 4z"/>
</g>
</svg>
