<svg version="1.0" xmlns="http://www.w3.org/2000/svg"
 width="512.000000pt" height="512.000000pt" viewBox="0 0 512.000000 512.000000"
 preserveAspectRatio="xMidYMid meet">

<g transform="translate(0.000000,512.000000) scale(0.100000,-0.100000)" stroke="none">
<path d="M2340 3965 c-193 -47 -338 -184 -394 -374 -18 -62 -21 -202 -5 -271
18 -80 68 -169 134 -238 l63 -67 -20 -50 c-11 -27 -31 -97 -46 -155 -23 -92
-26 -125 -27 -275 0 -183 13 -269 61 -415 51 -150 152 -325 251 -431 24 -25
43 -51 43 -58 0 -7 -42 -63 -93 -124 -136 -164 -137 -166 -137 -204 0 -45 14
-69 50 -88 40 -20 72 -19 103 5 14 11 74 79 132 150 l106 129 67 -43 c86 -56
169 -97 260 -130 260 -93 584 -93 844 0 87 31 216 95 275 135 23 16 46 29 52
29 5 0 60 -61 122 -136 109 -132 135 -154 184 -154 32 0 82 44 90 80 9 41 -7
68 -116 201 -52 63 -100 122 -107 131 -12 15 -7 26 44 85 202 238 304 517 304
832 0 147 -19 269 -62 398 l-30 93 58 63 c69 73 107 140 129 222 20 77 19 216
-1 286 -94 321 -448 477 -752 332 -36 -17 -86 -56 -136 -105 l-79 -78 -116 27
c-193 44 -475 36 -637 -20 l-38 -14 -76 77 c-140 144 -319 199 -500 155z m246
-214 c56 -25 124 -78 124 -97 0 -8 -4 -14 -9 -14 -5 0 -51 -28 -103 -62 -106
-71 -242 -202 -312 -300 -26 -38 -52 -68 -56 -68 -5 0 -23 21 -41 46 -157 228
16 539 289 519 34 -2 83 -13 108 -24z m1664 13 c69 -20 118 -52 163 -105 97
-113 103 -296 12 -415 -14 -19 -29 -34 -34 -34 -4 0 -27 28 -50 61 -93 131
-261 284 -390 355 l-51 27 22 25 c51 54 159 100 239 101 19 1 59 -6 89 -15z
m-815 -175 c294 -36 553 -186 735 -425 69 -91 143 -245 177 -369 25 -91 28
-115 28 -270 -1 -144 -4 -183 -23 -251 -52 -194 -134 -343 -264 -479 -140
-147 -298 -244 -493 -301 -112 -32 -329 -44 -452 -24 -347 56 -637 273 -794
595 -194 396 -120 871 186 1194 88 93 163 151 268 206 210 112 411 151 632
124z"/>
<path d="M3229 3251 l-29 -29 0 -387 0 -387 29 -29 29 -29 292 0 292 0 29 29
c31 31 39 83 19 122 -24 43 -57 49 -280 49 l-210 0 0 305 c0 325 -3 350 -49
375 -39 20 -91 12 -122 -19z"/>
<path d="M1015 3591 c-49 -23 -519 -492 -534 -534 -39 -102 31 -224 138 -242
71 -12 115 9 207 97 l84 81 0 -657 c0 -635 1 -658 20 -696 32 -63 87 -93 167
-92 76 2 142 54 163 130 6 24 10 268 10 677 l0 639 68 -66 c99 -98 163 -119
247 -78 78 38 118 126 95 210 -10 39 -41 74 -243 278 -145 145 -247 240 -272
252 -51 25 -98 25 -150 1z"/>
</g>
</svg>
