<?xml version="1.0" standalone="no"?>
<!DOCTYPE svg PUBLIC "-//W3C//DTD SVG 20010904//EN">
<svg version="1.0" xmlns="http://www.w3.org/2000/svg"
 width="512.000000pt" height="512.000000pt" viewBox="0 0 512.000000 512.000000"
 preserveAspectRatio="xMidYMid meet">

<g transform="translate(0.000000,512.000000) scale(0.100000,-0.100000)" stroke="none">
<path d="M1769 5106 c-107 -29 -210 -122 -250 -224 -19 -49 -23 -82 -27 -229
l-4 -172 -402 -3 c-383 -3 -404 -5 -467 -26 -136 -45 -267 -156 -332 -280 -70
-133 -72 -149 -72 -522 0 -334 0 -335 24 -373 40 -66 77 -77 251 -77 l150 0 0
-1338 c0 -1301 1 -1341 20 -1416 28 -110 74 -190 155 -271 81 -81 161 -127
271 -155 75 -19 116 -20 1474 -20 1358 0 1399 1 1474 20 110 28 190 74 271
155 81 81 127 161 155 271 19 75 20 115 20 1416 l0 1338 150 0 c174 0 211 11
251 77 24 38 24 39 24 373 0 367 -2 386 -65 510 -66 130 -199 245 -338 292
-64 22 -83 23 -468 26 l-402 3 -4 172 c-4 147 -8 180 -27 229 -31 80 -106 159
-189 200 l-67 33 -765 2 c-585 1 -776 -1 -811 -11z m1525 -328 c13 -18 16 -52
16 -160 l0 -138 -750 0 -750 0 0 138 c0 108 3 142 16 160 l15 22 719 0 719 0
15 -22z m1141 -645 c52 -28 110 -88 132 -138 15 -33 18 -76 21 -257 l4 -218
-2032 0 -2032 0 4 218 c3 181 6 224 21 257 31 69 104 133 177 156 14 4 844 7
1845 6 l1820 -2 40 -22z m-277 -2275 c-3 -1313 -3 -1344 -23 -1383 -25 -50
-80 -105 -130 -130 -39 -20 -68 -20 -1445 -20 -1377 0 -1406 0 -1445 20 -50
25 -105 80 -130 130 -20 39 -20 70 -23 1383 l-2 1342 1600 0 1600 0 -2 -1342z"/>
<path d="M1576 2538 c-22 -13 -49 -39 -60 -58 -21 -34 -21 -49 -24 -753 -2
-472 1 -731 8 -756 14 -52 75 -107 129 -116 53 -9 126 25 158 74 l23 34 0 742
0 742 -22 33 c-53 77 -139 100 -212 58z"/>
<path d="M2495 2546 c-37 -17 -70 -52 -84 -89 -8 -19 -11 -264 -11 -753 0
-701 1 -726 20 -763 57 -113 223 -112 280 0 20 38 20 57 18 778 -3 729 -3 740
-24 767 -11 15 -32 37 -46 47 -34 25 -113 32 -153 13z"/>
<path d="M3410 2549 c-14 -6 -36 -20 -48 -32 -54 -50 -52 -20 -52 -815 l0
-739 23 -34 c32 -49 105 -83 158 -74 54 9 115 64 129 116 7 25 10 284 8 756
l-3 718 -24 38 c-39 64 -124 93 -191 66z"/>
</g>
</svg>
