<svg version="1.0" xmlns="http://www.w3.org/2000/svg"
 width="512.000000pt" height="512.000000pt" viewBox="0 0 512.000000 512.000000"
 preserveAspectRatio="xMidYMid meet">

<g transform="translate(0.000000,512.000000) scale(0.100000,-0.100000)" stroke="none">
<path d="M1175 4904 c-357 -63 -678 -300 -844 -624 -27 -52 -60 -131 -74 -175
-59 -181 -57 -132 -57 -1545 0 -1128 2 -1309 15 -1381 68 -363 295 -675 614
-842 113 -59 234 -101 350 -121 84 -14 241 -16 1381 -16 1399 0 1358 -1 1542
56 46 14 126 48 178 75 331 173 562 487 625 853 23 133 23 2619 0 2752 -85
495 -475 885 -969 969 -128 22 -2637 21 -2761 -1z m2760 -397 c93 -28 234
-101 302 -157 136 -111 238 -279 273 -452 19 -89 20 -148 20 -1338 0 -1190 -1
-1249 -20 -1338 -63 -307 -306 -550 -615 -613 -92 -19 -137 -19 -1373 -16
-1437 3 -1310 -4 -1487 82 -218 106 -377 309 -426 549 -18 86 -19 155 -19
1336 0 1181 1 1250 19 1336 23 109 79 234 146 322 117 155 326 277 520 305 17
2 608 4 1315 3 1200 -2 1289 -3 1345 -19z"/>
<path d="M2960 3767 c-65 -21 -97 -69 -205 -307 l-102 -225 -644 -5 c-581 -5
-647 -7 -675 -22 -41 -23 -92 -82 -100 -116 -3 -15 -8 -33 -10 -40 -7 -25 17
-107 42 -139 53 -70 28 -67 646 -73 l557 -5 -121 -265 c-66 -146 -125 -271
-130 -277 -8 -10 -106 -13 -430 -13 -398 0 -421 -1 -458 -20 -93 -47 -132
-173 -82 -265 17 -32 64 -73 104 -89 31 -13 91 -16 358 -16 176 0 320 -4 320
-8 0 -4 -30 -72 -66 -151 -63 -137 -66 -147 -62 -206 4 -70 34 -121 91 -156
74 -45 181 -29 241 35 16 17 74 132 131 256 l102 225 644 5 c693 5 662 3 722
59 98 90 76 250 -43 311 -38 19 -60 20 -585 20 -429 0 -545 3 -545 13 0 6 55
132 122 280 l123 267 423 0 c402 0 425 1 462 20 141 72 139 273 -4 345 l-50
25 -323 0 c-178 0 -323 4 -323 8 0 4 29 71 65 149 53 115 65 150 65 192 0 66
-18 108 -63 148 -56 49 -124 63 -197 40z"/>
</g>
</svg>
