<svg version="1.0" xmlns="http://www.w3.org/2000/svg"
 width="512.000000pt" height="512.000000pt" viewBox="0 0 512.000000 512.000000"
 preserveAspectRatio="xMidYMid meet">

<g transform="translate(0.000000,512.000000) scale(0.100000,-0.100000)" stroke="none">
<path d="M639 5106 c-42 -15 -81 -43 -111 -81 -49 -62 -48 -38 -48 -1297 l0
-1178 -113 0 c-78 0 -128 -5 -161 -16 -64 -22 -147 -100 -177 -166 l-24 -53 0
-800 0 -800 24 -50 c32 -63 92 -124 156 -155 l50 -25 1315 0 c1264 0 1316 1
1350 19 49 26 88 64 113 111 22 40 22 47 25 629 2 394 -1 606 -8 641 -15 70
-59 128 -122 159 l-52 26 -1270 0 c-897 0 -1283 3 -1311 11 -113 32 -161 172
-88 259 42 51 71 60 188 60 l105 0 0 -49 c0 -90 75 -136 130 -81 20 20 20 33
20 1331 l0 1311 29 29 29 29 1461 0 1460 0 3 -392 c3 -388 3 -393 25 -424 45
-63 51 -64 472 -64 l381 0 0 -1941 0 -1941 -29 -29 -29 -29 -1872 0 -1872 0
-29 29 c-19 20 -29 40 -29 60 0 35 -39 71 -77 71 -31 0 -73 -42 -73 -73 0 -80
58 -173 133 -214 30 -17 141 -18 1947 -18 1806 0 1917 1 1947 18 18 9 48 33
67 53 71 73 66 -92 64 2149 -3 1946 -4 2021 -22 2055 -25 48 -762 786 -811
813 l-40 22 -1545 2 c-1252 2 -1552 0 -1581 -11z m3476 -516 l350 -350 -353 0
-352 0 0 350 c0 193 1 350 3 350 1 0 160 -157 352 -350z m-2574 -2668 l1296
-2 24 -26 24 -26 0 -595 0 -595 -28 -24 -28 -24 -1273 0 -1273 0 -43 23 c-30
16 -51 37 -67 67 l-23 43 0 603 0 603 48 -22 47 -22 1296 -3z"/>
<path d="M668 1623 c-9 -10 -23 -33 -32 -51 -13 -26 -14 -36 -5 -55 21 -38 41
-46 117 -47 l72 0 0 -140 c0 -160 -10 -198 -62 -230 -81 -51 -188 22 -188 128
0 34 -36 72 -69 72 -61 0 -88 -49 -72 -135 43 -232 281 -329 441 -179 26 25
58 68 71 97 22 49 24 66 27 271 4 235 0 254 -45 275 -13 6 -73 11 -132 11 -90
0 -110 -3 -123 -17z"/>
<path d="M1150 1624 c-82 -36 -124 -106 -125 -209 0 -82 26 -139 87 -188 31
-25 48 -30 110 -35 82 -5 98 -13 98 -49 0 -58 -11 -63 -130 -63 -59 0 -116 -3
-125 -6 -19 -8 -45 -55 -45 -84 0 -12 13 -35 29 -51 29 -29 31 -29 143 -29
131 0 176 15 225 74 74 90 69 232 -10 314 -46 48 -63 55 -147 61 -70 6 -75 8
-84 33 -7 18 -6 35 2 53 11 25 13 25 127 25 110 0 117 1 140 25 40 39 28 111
-22 134 -37 17 -231 13 -273 -5z"/>
<path d="M1719 1625 c-63 -20 -132 -84 -166 -153 -27 -54 -28 -64 -28 -197 0
-122 3 -146 21 -186 107 -230 391 -231 497 -1 19 41 21 65 22 187 0 122 -3
146 -21 186 -62 134 -200 204 -325 164z m136 -175 c45 -28 65 -82 65 -178 0
-98 -23 -151 -73 -175 -45 -22 -75 -21 -113 2 -47 29 -64 75 -64 175 0 103 16
148 62 176 42 25 82 25 123 0z"/>
<path d="M2163 1630 c-12 -5 -26 -18 -32 -29 -16 -30 -14 -631 2 -652 33 -43
78 -46 113 -8 16 18 20 42 24 160 l5 140 81 -153 c90 -169 114 -194 163 -167
50 28 51 41 49 367 l-3 304 -29 25 c-21 18 -35 23 -55 18 -52 -13 -56 -25 -61
-183 l-5 -147 -78 145 c-75 138 -114 191 -140 189 -7 0 -22 -4 -34 -9z"/>
<path d="M1750 4031 c-72 -22 -123 -68 -151 -136 -7 -17 -15 -105 -19 -205 -7
-207 -15 -230 -95 -285 -56 -39 -75 -68 -75 -116 0 -32 22 -58 93 -112 63 -47
70 -71 76 -267 6 -156 9 -180 30 -223 41 -84 134 -134 234 -124 65 6 92 33 92
91 0 55 -24 84 -76 92 -68 11 -73 25 -80 213 -7 192 -20 238 -90 302 l-41 38
34 33 c39 36 72 95 83 146 4 18 10 101 14 184 6 141 8 152 30 169 13 11 33 19
46 19 56 0 98 74 76 133 -18 47 -107 70 -181 48z"/>
<path d="M3214 4031 c-53 -23 -70 -98 -34 -143 11 -15 38 -30 63 -37 24 -6 50
-17 57 -25 7 -10 15 -76 21 -178 4 -90 13 -178 18 -196 19 -62 57 -110 118
-147 2 -1 -22 -27 -52 -57 -71 -74 -85 -121 -86 -287 0 -150 -11 -192 -54
-205 -68 -20 -83 -29 -94 -52 -18 -40 -13 -81 13 -111 22 -26 30 -28 93 -27
76 1 129 22 175 71 50 52 60 94 68 284 8 197 17 227 85 269 110 68 111 145 4
219 -77 52 -82 68 -90 278 -7 174 -8 184 -36 235 -39 72 -102 111 -187 115
-33 2 -71 -1 -82 -6z"/>
<path d="M2082 3128 c-7 -7 -12 -43 -12 -93 0 -50 5 -86 12 -93 7 -7 43 -12
89 -12 101 0 109 8 109 105 0 97 -8 105 -109 105 -46 0 -82 -5 -89 -12z"/>
<path d="M2456 3118 c-10 -14 -16 -44 -16 -83 0 -92 13 -105 109 -105 101 0
111 10 111 107 0 93 -11 103 -113 103 -67 0 -78 -3 -91 -22z"/>
<path d="M2836 3124 c-12 -11 -16 -35 -16 -89 0 -98 8 -105 109 -105 99 0 106
7 106 105 0 98 -7 105 -106 105 -57 0 -82 -4 -93 -16z"/>
</g>
</svg>
