<svg version="1.0" xmlns="http://www.w3.org/2000/svg"
 width="512.000000pt" height="512.000000pt" viewBox="0 0 512.000000 512.000000"
 preserveAspectRatio="xMidYMid meet">

<g transform="translate(0.000000,512.000000) scale(0.100000,-0.100000)" stroke="none">
<path d="M2305 3814 c-699 -70 -1282 -300 -1800 -710 -132 -104 -464 -435
-488 -486 -37 -79 -21 -110 154 -292 155 -161 271 -264 431 -382 1005 -743
2358 -853 3463 -281 347 180 611 379 890 669 169 176 185 208 148 286 -23 49
-354 380 -473 474 -491 388 -1025 616 -1645 704 -105 15 -586 27 -680 18z
m490 -344 c91 -25 221 -83 292 -131 69 -47 188 -164 239 -236 58 -80 117 -207
146 -313 33 -122 33 -338 0 -460 -48 -176 -134 -321 -263 -446 -90 -86 -146
-124 -252 -174 -139 -65 -229 -85 -397 -85 -168 0 -258 20 -397 85 -106 50
-162 88 -252 174 -129 125 -215 270 -263 446 -32 120 -32 337 0 458 27 103 88
234 146 315 51 72 170 189 239 236 102 70 267 133 402 155 71 11 281 -3 360
-24z m-1056 -67 c-477 -460 -477 -1226 0 -1685 49 -49 86 -88 81 -88 -25 0
-263 75 -363 114 -411 163 -728 369 -1042 677 l-140 138 110 111 c307 311 655
541 1065 704 104 41 337 114 367 116 7 0 -29 -39 -78 -87z m1691 52 c482 -139
935 -411 1305 -784 l110 -111 -110 -111 c-310 -313 -659 -543 -1068 -703 -103
-41 -342 -116 -367 -116 -5 0 32 39 81 88 477 459 477 1225 0 1685 -49 48 -86
87 -81 87 4 0 63 -16 130 -35z"/>
<path d="M2416 3164 c-113 -27 -204 -79 -291 -168 -92 -93 -136 -167 -165
-282 -37 -145 -22 -291 47 -434 49 -103 169 -223 274 -273 183 -89 379 -89
559 -1 104 51 223 171 273 275 90 186 89 376 -1 559 -51 105 -169 224 -273
273 -135 65 -288 84 -423 51z m307 -262 c77 -38 148 -111 185 -190 23 -49 27
-70 27 -152 0 -82 -4 -103 -27 -152 -37 -80 -107 -152 -187 -191 -60 -29 -74
-32 -161 -32 -82 0 -103 4 -152 27 -80 37 -152 107 -191 187 -29 60 -32 74
-32 161 0 82 4 103 27 152 47 100 137 180 241 214 26 9 73 13 124 11 67 -3 92
-9 146 -35z"/>
</g>
</svg>
