<?xml version="1.0" standalone="no"?>
<!DOCTYPE svg PUBLIC "-//W3C//DTD SVG 20010904//EN">
<svg version="1.0" xmlns="http://www.w3.org/2000/svg"
 width="512.000000pt" height="512.000000pt" viewBox="0 0 512.000000 512.000000"
 preserveAspectRatio="xMidYMid meet">

<g transform="translate(0.000000,512.000000) scale(0.100000,-0.100000)" stroke="none">
<path d="M309 5106 c-118 -33 -224 -118 -275 -221 -26 -54 -29 -70 -29 -160 0
-174 -66 -92 975 -1215 501 -542 918 -999 926 -1017 12 -27 14 -199 14 -1086
0 -1135 -1 -1118 52 -1206 77 -130 228 -210 373 -198 111 9 160 37 434 242
269 202 324 251 365 334 57 112 56 92 56 1023 0 719 2 864 14 891 8 18 422
473 920 1011 1040 1123 981 1050 981 1225 0 85 -3 103 -28 154 -53 106 -159
190 -282 223 -72 20 -4426 19 -4496 0z m4451 -321 c33 -17 46 -52 33 -88 -4
-14 -413 -462 -908 -997 -495 -535 -912 -990 -927 -1012 -15 -22 -38 -65 -50
-96 l-23 -57 -5 -890 c-4 -768 -7 -893 -20 -913 -14 -21 -451 -356 -497 -381
-34 -18 -78 -13 -99 10 -18 20 -19 57 -24 1103 l-5 1081 -23 56 c-12 31 -41
83 -65 116 -23 33 -438 484 -922 1002 -484 518 -886 956 -893 973 -7 17 -11
42 -8 54 15 57 -127 53 2234 54 1924 0 2176 -2 2202 -15z"/>
</g>
</svg>
