<?xml version="1.0" standalone="no"?>
<!DOCTYPE svg PUBLIC "-//W3C//DTD SVG 20010904//EN">
<svg version="1.0" xmlns="http://www.w3.org/2000/svg"
 width="512.000000pt" height="512.000000pt" viewBox="0 0 512.000000 512.000000"
 preserveAspectRatio="xMidYMid meet">

<g transform="translate(0.000000,512.000000) scale(0.100000,-0.100000)" stroke="none">
<path d="M2559 4786 c-2 -2 -35 -7 -74 -11 -78 -7 -309 -57 -395 -85 -370
-122 -636 -284 -906 -554 -272 -272 -439 -543 -553 -896 -256 -797 -47 -1671
544 -2266 252 -254 588 -458 915 -556 464 -140 943 -136 1382 13 345 116 612
282 873 544 145 144 249 277 266 337 27 101 -72 209 -176 193 -21 -3 -44 -10
-50 -14 -36 -30 -220 -122 -290 -146 -48 -16 -60 -19 -105 -29 -11 -3 -23 -7
-28 -9 -7 -5 -58 -13 -167 -27 -98 -12 -350 2 -387 21 -9 5 -25 9 -36 9 -45 0
-219 66 -319 122 -332 185 -558 488 -639 860 -25 112 -29 342 -10 463 65 391
301 727 646 917 103 57 216 101 315 123 11 3 45 10 75 17 33 8 126 13 235 13
154 0 194 -4 275 -24 117 -28 285 -96 388 -156 84 -49 138 -58 191 -30 71 36
107 127 78 196 -38 90 -238 316 -398 449 -199 166 -371 270 -599 363 -169 69
-310 110 -455 133 -16 3 -55 10 -85 16 -53 10 -502 23 -511 14z m526 -340 c88
-18 96 -19 175 -40 127 -33 253 -82 381 -148 75 -38 148 -80 163 -92 l27 -21
-148 2 c-81 1 -175 -3 -208 -8 -33 -5 -80 -11 -105 -15 -25 -3 -48 -8 -53 -11
-4 -2 -20 -7 -35 -9 -77 -14 -265 -85 -367 -139 -131 -69 -254 -163 -375 -285
-204 -203 -330 -411 -405 -669 l-22 -75 -12 50 c-11 45 -31 67 -244 282 -145
145 -247 240 -272 252 -51 25 -98 25 -150 1 -45 -21 -503 -476 -530 -526 l-16
-30 6 35 c29 151 161 457 262 607 249 370 607 642 1018 774 73 24 204 56 262
64 26 4 71 11 98 15 87 13 461 4 550 -14z m-2168 -1618 c39 -67 123 -99 203
-78 31 8 64 32 126 92 l84 81 0 -657 c0 -635 1 -658 20 -696 32 -63 87 -93
167 -92 76 2 142 54 163 130 6 24 10 268 10 677 l0 639 68 -66 c95 -95 158
-117 237 -83 39 16 95 71 95 94 0 8 2 12 4 10 3 -2 -2 -47 -10 -99 -18 -122
-18 -327 1 -455 82 -571 454 -1042 990 -1255 210 -84 369 -113 609 -113 l140
1 -29 -22 c-98 -71 -379 -197 -515 -231 -127 -32 -148 -36 -290 -56 -85 -12
-337 -15 -420 -5 -128 16 -200 29 -290 52 -540 142 -984 501 -1233 999 -68
135 -99 217 -137 360 -74 274 -86 554 -37 840 l11 70 7 -52 c4 -29 15 -67 26
-85z"/>
<path d="M3693 3280 c-111 -8 -207 -20 -212 -25 -5 -6 -19 -52 -30 -103 -19
-88 -30 -110 -105 -217 -12 -16 72 -144 95 -145 9 0 38 32 66 71 l51 71 8
-159 c4 -87 8 -313 8 -503 1 -310 -1 -350 -17 -398 -11 -29 -30 -66 -44 -83
-14 -16 -22 -33 -19 -37 12 -11 466 -8 470 3 1 6 -9 26 -24 45 -54 70 -53 62
-77 385 -19 247 -20 417 -4 779 l10 230 30 41 c28 38 30 59 6 61 -5 0 -101 -7
-212 -16z"/>
</g>
</svg>
