<?xml version="1.0" standalone="no"?>
<!DOCTYPE svg PUBLIC "-//W3C//DTD SVG 20010904//EN">
<svg version="1.0" xmlns="http://www.w3.org/2000/svg"
 width="512.000000pt" height="512.000000pt" viewBox="0 0 512.000000 512.000000"
 preserveAspectRatio="xMidYMid meet">

<g transform="translate(0.000000,512.000000) scale(0.100000,-0.100000)" stroke="none">
<path d="M639 5106 c-72 -25 -123 -80 -145 -153 -22 -72 -21 -4717 1 -4790 16
-53 64 -111 118 -140 30 -17 141 -18 1947 -18 1806 0 1917 1 1947 18 18 9 48
33 67 53 71 73 66 -92 64 2149 -3 1946 -4 2021 -22 2055 -25 48 -762 786 -811
813 l-40 22 -1545 2 c-1252 2 -1552 0 -1581 -11z m2973 -528 c3 -388 3 -393
25 -424 45 -63 51 -64 472 -64 l381 0 0 -1941 0 -1941 -29 -29 -29 -29 -1872
0 -1872 0 -29 29 -29 29 0 2352 0 2352 29 29 29 29 1461 0 1460 0 3 -392z
m503 12 l350 -350 -353 0 -352 0 0 350 c0 193 1 350 3 350 1 0 160 -157 352
-350z"/>
<path d="M2203 3580 c-71 -43 -67 -17 -73 -595 l-5 -520 -110 -5 c-93 -4 -115
-8 -141 -27 -58 -42 -82 -139 -50 -201 8 -15 146 -158 308 -319 276 -274 296
-292 347 -307 68 -20 94 -20 162 0 51 15 71 33 347 307 162 161 300 304 308
319 22 42 18 119 -9 159 -36 54 -77 69 -189 69 l-97 0 -3 513 c-3 496 -4 513
-24 547 -11 19 -35 45 -54 57 -33 23 -37 23 -359 23 -305 0 -328 -1 -358 -20z
m647 -679 l0 -550 26 -20 c24 -19 40 -21 155 -21 71 0 129 -3 129 -8 0 -4
-123 -130 -272 -279 -177 -176 -283 -274 -300 -278 -16 -4 -40 -4 -55 0 -18 4
-125 103 -300 278 -150 149 -273 275 -273 279 0 4 58 8 129 8 123 0 131 1 158
24 l28 24 3 546 3 546 284 0 285 0 0 -549z"/>
<path d="M1825 1486 c-184 -80 -191 -348 -12 -432 l52 -24 695 0 695 0 51 24
c182 85 174 354 -13 433 -47 19 -1423 19 -1468 -1z m1440 -161 c14 -13 25 -36
25 -50 0 -33 -24 -81 -45 -89 -22 -8 -1348 -8 -1370 0 -26 10 -48 62 -40 100
12 67 -23 64 728 64 l678 0 24 -25z"/>
</g>
</svg>
