<svg xmlns="http://www.w3.org/2000/svg" viewBox="0 0 512 512"><path d="M248.5-.5h14c6.737 2.907 11.237 7.907 13.5 15l1 300 61.5-61.5c11.945-9.277 23.112-8.444 33.5 2.5 4.899 8.893 4.566 17.56-1 26a6790.308 6790.308 0 0 0-98.5 97.5c-11.333 7.333-22.667 7.333-34 0a6790.308 6790.308 0 0 1-98.5-97.5c-7.116-11.728-5.616-22.228 4.5-31.5 10.011-5.249 19.344-4.249 28 3l61.5 61.5 1-300c2.263-7.093 6.763-12.093 13.5-15Z" style="opacity:.976"/><path d="M427.5 511.5h-344c-35.029-6.853-58.529-27.187-70.5-61a105.669 105.669 0 0 1-3-14 9604.202 9604.202 0 0 1 0-196c5.377-31.708 22.543-54.542 51.5-68.5a98.513 98.513 0 0 1 21-6c35-.667 70-.667 105 0 13.287 6.52 17.12 16.687 11.5 30.5-3.158 5.827-7.992 9.327-14.5 10.5a2637.74 2637.74 0 0 0-100 2c-18.797 6.129-29.63 18.962-32.5 38.5a4492.865 4492.865 0 0 0 1 188c5.463 18.463 17.63 29.63 36.5 33.5 110.667.667 221.333.667 332 0 21.401-4.734 33.901-17.9 37.5-39.5.667-60.667.667-121.333 0-182-2.87-19.538-13.703-32.371-32.5-38.5-34.675-.993-69.341-1.993-104-3-13.852-8.331-16.686-19.497-8.5-33.5 2.559-3.031 5.726-5.198 9.5-6.5 35-.667 70-.667 105 0 34.646 6.979 57.813 27.146 69.5 60.5 1.317 4.6 2.317 9.266 3 14 .976 67.36.643 134.694-1 202-10.092 37.928-34.258 60.928-72.5 69Z" style="opacity:.98"/></svg>