<svg version="1.0" xmlns="http://www.w3.org/2000/svg"
 width="512.000000pt" height="512.000000pt" viewBox="0 0 512.000000 512.000000"
 preserveAspectRatio="xMidYMid meet">

<g transform="translate(0.000000,512.000000) scale(0.100000,-0.100000)" stroke="none">
<path d="M2285 4675 c-708 -93 -1326 -538 -1640 -1180 -107 -219 -179 -465
-204 -697 -14 -123 -14 -368 -1 -478 51 -421 221 -814 488 -1130 71 -83 79
-97 64 -107 -8 -7 -119 -70 -244 -139 -126 -70 -243 -141 -260 -158 -41 -40
-58 -84 -58 -147 0 -59 20 -108 63 -150 63 -63 -8 -60 1212 -57 l1110 3 139
28 c764 152 1379 687 1625 1414 149 439 149 927 0 1366 -265 782 -964 1345
-1784 1437 -122 13 -387 11 -510 -5z m414 -415 c682 -61 1262 -514 1476 -1154
353 -1055 -372 -2154 -1482 -2246 -65 -5 -367 -10 -672 -10 l-555 0 44 37 c50
43 79 102 80 160 0 77 -25 117 -134 214 -253 226 -419 472 -516 767 -317 966
279 1994 1276 2203 170 35 313 44 483 29z"/>
<path d="M2465 3619 c-208 -32 -394 -171 -484 -362 -35 -74 -61 -186 -61 -260
0 -107 70 -196 171 -218 132 -30 259 84 259 231 0 94 106 190 210 190 120 0
210 -96 210 -225 0 -105 -31 -148 -185 -261 -161 -117 -224 -207 -233 -333 -2
-40 0 -83 8 -105 52 -158 271 -191 369 -55 17 22 33 54 36 70 5 23 29 46 99
99 193 144 288 280 322 460 56 294 -81 576 -343 709 -111 56 -256 79 -378 60z"/>
<path d="M2480 1904 c-107 -46 -159 -174 -115 -282 64 -152 273 -172 369 -34
40 57 48 149 18 208 -54 104 -172 151 -272 108z"/>
</g>
</svg>
