<?xml version="1.0" standalone="no"?>
<!DOCTYPE svg PUBLIC "-//W3C//DTD SVG 20010904//EN">
<svg version="1.0" xmlns="http://www.w3.org/2000/svg"
 width="512.000000pt" height="512.000000pt" viewBox="0 0 512.000000 512.000000"
 preserveAspectRatio="xMidYMid meet">

<g transform="translate(0.000000,512.000000) scale(0.100000,-0.100000)" stroke="none">
<path d="M3350 4895 c-100 -32 -85 1 -446 -960 -180 -479 -331 -888 -336 -910
-23 -98 46 -211 148 -241 63 -18 111 -12 171 22 54 31 79 74 144 250 l53 144
332 0 332 0 30 -77 c16 -43 42 -114 58 -158 64 -178 208 -241 344 -151 54 35
94 120 88 184 -5 52 -634 1740 -674 1809 -46 80 -152 118 -244 88z m155 -1044
l83 -221 -170 0 c-132 0 -169 3 -166 13 38 108 163 435 166 432 2 -2 41 -103
87 -224z"/>
<path d="M1340 3570 c-68 -12 -121 -60 -140 -128 -6 -24 -10 -268 -10 -677 l0
-639 -67 66 c-101 99 -164 119 -251 77 -77 -38 -115 -124 -92 -210 10 -38 43
-75 243 -277 237 -238 281 -272 348 -272 69 1 109 32 361 286 213 215 247 254
253 287 17 92 -21 173 -99 208 -88 40 -146 20 -257 -88 l-79 -76 0 657 c0 635
-1 658 -20 696 -34 67 -112 104 -190 90z"/>
<path d="M2711 2335 c-61 -19 -118 -78 -137 -140 -30 -102 13 -202 107 -249
l53 -26 448 0 448 0 -511 -682 c-282 -375 -520 -695 -529 -712 -47 -82 -31
-176 40 -247 37 -37 58 -49 101 -59 39 -8 237 -10 719 -8 l665 3 47 28 c84 49
124 149 97 244 -16 59 -78 124 -135 141 -30 9 -161 12 -478 12 -240 0 -436 2
-436 5 0 3 233 317 519 698 312 416 524 707 531 731 29 91 -18 201 -105 245
l-49 26 -676 2 c-551 2 -683 -1 -719 -12z"/>
</g>
</svg>
