<svg version="1.0" xmlns="http://www.w3.org/2000/svg"
 width="512.000000pt" height="512.000000pt" viewBox="0 0 512.000000 512.000000"
 preserveAspectRatio="xMidYMid meet">

<g transform="translate(0.000000,512.000000) scale(0.100000,-0.100000)" stroke="none">
<path d="M2307 5105 c-142 -36 -272 -135 -330 -254 l-32 -66 -3 -236 -3 -237
-87 -36 -86 -36 -156 155 c-171 169 -214 197 -335 217 -88 15 -188 -2 -285
-49 -66 -31 -94 -54 -235 -197 -132 -132 -167 -173 -192 -226 -42 -89 -56
-161 -51 -263 7 -134 37 -186 220 -372 l148 -152 -33 -79 -34 -79 -204 -6
c-172 -5 -213 -10 -263 -28 -172 -61 -286 -184 -331 -357 -21 -81 -21 -407 0
-488 45 -173 159 -296 331 -357 50 -18 91 -23 263 -28 l204 -6 33 -79 33 -79
-148 -152 c-189 -193 -214 -238 -219 -390 -4 -87 -1 -110 20 -171 37 -105 82
-165 241 -321 120 -118 155 -146 218 -176 96 -47 196 -64 284 -49 121 20 164
48 335 217 l156 155 87 -37 87 -36 0 -197 c0 -150 4 -209 16 -251 50 -171 192
-303 370 -345 106 -24 446 -16 526 14 150 54 261 171 309 322 17 52 22 104 27
264 l7 198 80 33 80 34 156 -155 c173 -170 216 -198 337 -216 89 -14 189 3
283 48 60 29 96 58 217 177 80 78 162 169 184 201 51 79 78 169 79 265 2 161
-31 223 -222 417 l-149 150 34 80 35 79 203 7 c225 7 269 16 374 79 108 65
200 199 224 328 13 70 13 372 0 442 -25 132 -119 266 -235 334 -97 58 -147 68
-368 74 l-198 6 -35 79 -34 80 149 150 c190 194 224 257 222 417 -1 94 -28
187 -79 265 -22 32 -105 123 -184 201 -124 121 -157 148 -219 178 -98 46 -198
63 -283 48 -122 -21 -166 -49 -336 -218 l-155 -154 -80 34 -80 33 -6 223 c-6
198 -9 231 -28 281 -50 130 -153 227 -297 280 -53 19 -83 22 -279 24 -167 3
-234 0 -278 -11z m446 -349 c77 -28 75 -18 79 -299 3 -239 5 -255 27 -304 38
-85 86 -120 266 -197 133 -57 172 -69 231 -73 116 -9 152 13 359 217 95 93
178 170 185 170 52 0 100 -30 199 -125 123 -118 161 -172 161 -229 0 -38 -7
-47 -174 -215 -152 -155 -175 -182 -191 -229 -30 -94 -19 -162 59 -343 76
-178 110 -225 194 -266 56 -28 59 -28 294 -33 219 -5 239 -7 265 -26 54 -40
63 -73 63 -244 0 -171 -9 -204 -63 -244 -26 -19 -46 -21 -265 -26 -235 -5
-238 -5 -294 -33 -84 -41 -118 -88 -194 -266 -78 -181 -89 -249 -59 -343 16
-47 39 -74 191 -229 167 -168 174 -177 174 -215 0 -57 -38 -111 -163 -231
-101 -97 -142 -123 -196 -123 -7 0 -91 77 -186 170 -207 203 -242 225 -358
218 -61 -4 -96 -15 -232 -73 -180 -78 -229 -114 -266 -198 -21 -48 -24 -69
-29 -289 -5 -219 -7 -239 -26 -265 -40 -54 -73 -63 -244 -63 -171 0 -204 9
-244 63 -19 26 -21 46 -26 270 -5 228 -7 245 -29 290 -40 82 -97 122 -281 198
-146 61 -172 68 -230 69 -104 0 -133 -20 -325 -209 -93 -93 -180 -172 -193
-176 -48 -14 -94 15 -220 139 -135 132 -152 156 -152 213 0 36 9 47 161 198
172 171 204 214 218 291 14 71 0 124 -76 302 -76 176 -106 217 -191 259 -56
28 -60 28 -294 33 -219 5 -239 7 -265 26 -54 40 -63 73 -63 244 0 171 9 204
63 244 26 19 46 21 265 26 235 5 238 5 294 33 32 16 73 46 92 69 39 45 162
321 175 395 11 54 0 126 -25 175 -9 18 -93 110 -185 204 -224 227 -224 217
-17 420 126 124 172 153 220 139 13 -4 100 -83 193 -175 94 -92 186 -176 205
-186 19 -9 67 -19 105 -22 69 -4 75 -3 239 64 188 77 239 113 284 198 27 51
27 53 32 308 6 286 3 277 76 303 53 19 334 19 387 1z"/>
<path d="M2350 3571 c-390 -86 -684 -368 -792 -759 -18 -65 -22 -104 -22 -252
0 -148 4 -187 22 -252 103 -373 377 -647 750 -750 65 -18 104 -22 252 -22 148
0 187 4 252 22 373 103 647 377 750 750 18 65 22 104 22 252 0 148 -4 187 -22
252 -103 374 -380 650 -750 750 -113 30 -346 35 -462 9z m434 -366 c197 -69
358 -235 427 -440 21 -61 24 -89 23 -210 0 -132 -2 -145 -31 -223 -76 -200
-216 -339 -417 -415 -76 -29 -90 -31 -221 -31 -121 -1 -149 2 -210 23 -208 69
-372 231 -441 433 -27 76 -29 94 -28 223 0 125 3 148 26 213 81 225 251 380
492 448 36 10 88 13 176 10 105 -3 138 -8 204 -31z"/>
</g>
</svg>
