<?xml version="1.0" standalone="no"?>
<!DOCTYPE svg PUBLIC "-//W3C//DTD SVG 20010904//EN">
<svg version="1.0" xmlns="http://www.w3.org/2000/svg"
 width="512.000000pt" height="512.000000pt" viewBox="0 0 512.000000 512.000000"
 preserveAspectRatio="xMidYMid meet">

<g transform="translate(0.000000,512.000000) scale(0.100000,-0.100000)" stroke="none">
<path d="M2450 4771 c-118 -19 -302 -61 -375 -86 -208 -72 -377 -151 -517
-242 -199 -129 -452 -363 -585 -543 -239 -320 -374 -654 -434 -1070 -19 -130
-16 -443 4 -580 116 -761 566 -1381 1242 -1710 365 -178 748 -248 1178 -215
50 4 94 8 97 10 3 1 28 6 55 9 84 12 261 54 355 85 342 115 614 285 875 546
203 202 285 324 269 399 -17 85 -98 144 -177 132 -22 -4 -46 -11 -52 -15 -36
-30 -220 -122 -290 -146 -48 -16 -60 -19 -105 -29 -11 -3 -23 -7 -28 -9 -7 -5
-59 -13 -162 -26 -61 -7 -229 -6 -293 3 -477 67 -867 373 -1035 812 -61 161
-76 250 -77 454 0 202 10 267 67 430 120 340 379 613 718 756 87 36 139 51
280 79 112 22 376 14 495 -14 114 -28 265 -89 376 -153 75 -42 93 -49 134 -47
82 5 155 81 155 162 0 106 -320 450 -595 639 -262 180 -552 297 -890 359 -168
30 -519 35 -685 10z m615 -321 c106 -20 228 -51 320 -81 96 -31 371 -164 418
-201 l28 -23 -148 2 c-81 1 -175 -3 -208 -8 -33 -5 -80 -11 -105 -15 -106 -15
-337 -95 -452 -157 -127 -68 -246 -156 -360 -265 -317 -304 -488 -707 -488
-1147 0 -119 21 -320 36 -348 3 -7 -6 3 -22 22 -32 39 -95 70 -142 71 -55 0
-101 -26 -183 -107 l-79 -76 0 657 c0 635 -1 658 -20 696 -32 63 -87 93 -167
92 -76 -2 -142 -54 -163 -130 -6 -24 -10 -267 -10 -676 l0 -639 -72 70 c-80
76 -126 99 -190 90 -74 -10 -121 -54 -156 -147 -8 -21 -11 -12 -25 64 -104
558 35 1113 392 1566 227 287 594 533 951 635 59 17 177 44 217 50 26 4 71 11
98 15 72 11 460 4 530 -10z m-829 -2608 c53 -110 76 -147 155 -253 168 -224
393 -397 661 -509 219 -91 382 -123 637 -122 l135 0 -29 -22 c-125 -91 -415
-212 -610 -255 -719 -158 -1458 100 -1918 669 -117 145 -238 355 -301 522 -55
147 -61 150 187 -100 237 -238 281 -272 348 -272 69 1 109 33 361 286 230 232
247 252 254 293 l7 44 33 -92 c18 -51 54 -136 80 -189z"/>
<path d="M3530 3219 c-69 -39 -141 -80 -160 -92 -19 -11 -51 -29 -71 -40 -92
-49 -110 -86 -56 -106 32 -12 73 -66 136 -180 33 -58 49 -97 43 -103 -10 -10
-54 -15 -197 -22 -82 -5 -96 -3 -160 23 -38 16 -73 27 -77 24 -13 -7 -9 -33
37 -254 47 -219 62 -279 72 -279 4 0 27 13 52 29 60 38 112 58 186 70 33 6 77
13 98 17 33 6 37 5 37 -15 0 -38 -50 -222 -72 -265 -11 -23 -36 -58 -54 -79
-19 -20 -34 -42 -34 -47 0 -17 39 -27 130 -34 47 -4 99 -9 115 -11 138 -21
282 -29 289 -16 4 6 0 31 -9 56 -8 25 -15 67 -15 93 1 64 25 221 36 232 9 9
24 1 172 -95 71 -47 94 -71 148 -161 9 -14 16 -17 28 -9 9 6 56 98 105 205
100 222 118 267 108 276 -4 4 -35 8 -69 9 -53 2 -80 11 -170 55 -79 39 -108
57 -108 71 0 20 158 161 214 191 17 9 45 17 62 18 18 0 42 9 55 20 l24 20 -40
37 c-184 171 -348 314 -358 310 -7 -2 -20 -26 -30 -53 -29 -77 -182 -262 -209
-251 -9 3 -37 59 -64 124 -45 110 -48 124 -49 207 0 50 -4 91 -10 93 -5 1 -66
-29 -135 -68z"/>
</g>
</svg>
