<?xml version="1.0" standalone="no"?>
<!DOCTYPE svg PUBLIC "-//W3C//DTD SVG 20010904//EN">
<svg version="1.0" xmlns="http://www.w3.org/2000/svg"
 width="512.000000pt" height="512.000000pt" viewBox="0 0 512.000000 512.000000"
 preserveAspectRatio="xMidYMid meet">

<g transform="translate(0.000000,512.000000) scale(0.100000,-0.100000)" stroke="none">
<path d="M245 5111 c-90 -22 -172 -90 -215 -176 l-25 -50 0 -2325 0 -2325 27
-51 c40 -76 70 -107 140 -145 l63 -34 2325 0 2325 0 63 34 c70 38 100 69 140
145 l27 51 3 1965 c1 1081 0 1976 -3 1990 -7 28 -863 892 -907 916 -23 12
-304 14 -1980 13 -1074 -1 -1966 -4 -1983 -8z m1037 -828 l3 -628 24 -53 c31
-68 113 -144 183 -169 50 -17 109 -18 1068 -18 959 0 1018 1 1068 18 70 25
152 101 183 169 l24 53 3 628 3 627 137 0 137 0 397 -397 398 -398 0 -1903 c0
-1713 -2 -1907 -16 -1937 -26 -56 -60 -65 -248 -65 l-166 0 0 1255 c0 871 -3
1270 -11 1307 -30 147 -147 301 -277 367 -126 64 -45 61 -1629 61 -1008 0
-1458 -3 -1495 -11 -196 -40 -367 -207 -413 -400 -13 -55 -15 -235 -15 -1321
l0 -1258 -166 0 c-188 0 -222 9 -248 65 -14 30 -16 255 -16 2285 0 2026 2
2255 16 2285 31 65 26 65 566 65 l487 0 3 -627z m2348 32 c0 -629 0 -633 -51
-669 -21 -15 -115 -16 -1019 -16 -904 0 -998 1 -1019 16 -51 36 -51 40 -51
669 l0 585 1070 0 1070 0 0 -585z m440 -1356 c80 -37 125 -81 162 -157 l33
-67 3 -1257 2 -1258 -1710 0 -1710 0 2 1258 3 1257 26 55 c47 99 116 159 218
186 36 10 365 12 1481 11 l1435 -2 55 -26z"/>
<path d="M2821 4674 c-48 -34 -51 -60 -51 -409 0 -359 3 -381 59 -409 25 -13
71 -16 266 -16 257 0 280 4 304 57 7 16 11 145 11 379 l0 356 -29 29 -29 29
-254 0 c-218 0 -257 -2 -277 -16z m379 -409 l0 -215 -105 0 -105 0 0 215 0
215 105 0 105 0 0 -215z"/>
<path d="M1343 2335 c-33 -14 -63 -59 -63 -95 0 -37 30 -81 65 -96 51 -21
2379 -21 2430 0 35 15 65 59 65 96 0 37 -30 81 -65 96 -50 21 -2384 20 -2432
-1z"/>
<path d="M1343 1695 c-33 -14 -63 -59 -63 -95 0 -37 30 -81 65 -96 51 -21
2379 -21 2430 0 35 15 65 59 65 96 0 37 -30 81 -65 96 -50 21 -2384 20 -2432
-1z"/>
<path d="M1343 1055 c-33 -14 -63 -59 -63 -95 0 -37 30 -81 65 -96 51 -21
2379 -21 2430 0 35 15 65 59 65 96 0 37 -30 81 -65 96 -50 21 -2384 20 -2432
-1z"/>
</g>
</svg>
