<svg version="1.0" xmlns="http://www.w3.org/2000/svg"
 width="512.000000pt" height="512.000000pt" viewBox="0 0 512.000000 512.000000"
 preserveAspectRatio="xMidYMid meet">

<g transform="translate(0.000000,512.000000) scale(0.100000,-0.100000)" stroke="none">
<path d="M2705 3951 c-16 -10 -77 -67 -135 -125 -57 -58 -110 -106 -115 -106
-6 0 -24 14 -41 31 -39 41 -75 59 -121 59 -77 0 -143 -68 -143 -148 0 -61 15
-84 132 -199 83 -81 111 -103 142 -108 75 -15 98 1 302 207 175 176 192 197
199 236 19 119 -120 216 -220 153z"/>
<path d="M3352 3633 c-108 -53 -106 -210 3 -263 40 -19 62 -20 631 -20 541 0
592 1 624 18 107 53 107 211 0 264 -32 17 -83 18 -630 18 -528 0 -599 -2 -628
-17z"/>
<path d="M1015 3591 c-49 -23 -519 -492 -534 -534 -39 -102 31 -224 138 -242
71 -12 115 9 207 97 l84 81 0 -657 c0 -635 1 -658 20 -696 32 -63 87 -93 167
-92 76 2 142 54 163 130 6 24 10 268 10 677 l0 639 68 -66 c99 -98 163 -119
247 -78 78 38 118 126 95 210 -10 39 -41 74 -243 278 -145 145 -247 240 -272
252 -51 25 -98 25 -150 1z"/>
<path d="M2715 2991 c-22 -10 -89 -68 -149 -129 l-110 -111 -42 39 c-23 21
-61 44 -83 51 -37 11 -48 10 -89 -7 -68 -28 -95 -72 -90 -147 l4 -58 105 -105
c57 -58 116 -112 131 -120 35 -18 92 -18 132 1 49 23 372 353 391 399 31 73
-7 161 -82 192 -43 19 -70 17 -118 -5z"/>
<path d="M3374 2679 c-42 -12 -91 -69 -100 -115 -13 -71 35 -154 99 -169 12
-3 295 -4 629 -3 l608 3 37 37 c32 33 37 44 40 95 5 73 -19 116 -80 143 -40
19 -71 20 -622 19 -319 0 -594 -5 -611 -10z"/>
<path d="M2715 2028 c-11 -6 -73 -62 -137 -126 l-116 -115 -47 41 c-79 69
-164 70 -227 3 -34 -36 -38 -46 -38 -91 0 -28 6 -63 14 -78 8 -15 59 -70 113
-123 73 -72 109 -100 140 -109 76 -23 106 -3 310 203 209 210 222 231 187 315
-25 61 -71 92 -133 92 -25 0 -55 -6 -66 -12z"/>
<path d="M3339 1697 c-91 -61 -89 -181 5 -251 27 -21 39 -21 622 -24 572 -2
597 -2 639 17 63 28 87 70 82 143 -2 44 -9 64 -28 84 -52 56 -29 54 -682 54
l-604 0 -34 -23z"/>
</g>
</svg>
