<?xml version="1.0" standalone="no"?>
<!DOCTYPE svg PUBLIC "-//W3C//DTD SVG 20010904//EN">
<svg version="1.0" xmlns="http://www.w3.org/2000/svg"
 width="512.000000pt" height="512.000000pt" viewBox="0 0 512.000000 512.000000"
 preserveAspectRatio="xMidYMid meet">

<g transform="translate(0.000000,512.000000) scale(0.100000,-0.100000)" stroke="none">
<path d="M1018 5105 c-513 -80 -925 -496 -1003 -1012 -22 -147 -22 -2919 0
-3066 78 -521 492 -934 1012 -1012 147 -22 2920 -22 3066 0 522 79 934 491
1012 1014 22 142 22 2919 1 3061 -81 536 -500 947 -1039 1019 -127 18 -2937
13 -3049 -4z m3110 -413 c280 -86 484 -292 564 -569 l23 -78 0 -1485 c0 -1411
-1 -1488 -18 -1550 -82 -288 -291 -500 -574 -582 l-78 -23 -1485 0 c-1411 0
-1488 1 -1550 18 -288 82 -500 291 -582 574 l-23 78 0 1485 0 1485 23 78 c90
312 354 546 667 590 17 2 689 4 1495 3 l1465 -1 73 -23z"/>
<path d="M1895 3951 c-49 -23 -519 -492 -534 -534 -39 -102 31 -224 138 -242
71 -12 115 9 207 97 l84 81 0 -657 c0 -635 1 -658 20 -696 32 -63 87 -93 167
-92 76 2 142 54 163 130 6 24 10 268 10 677 l0 639 68 -66 c99 -98 163 -119
247 -78 78 38 118 126 95 210 -10 39 -41 74 -243 278 -145 145 -247 240 -272
252 -51 25 -98 25 -150 1z"/>
<path d="M3120 3210 c-68 -12 -121 -60 -140 -128 -6 -24 -10 -268 -10 -677 l0
-639 -67 66 c-101 99 -164 119 -251 77 -77 -38 -115 -124 -92 -210 10 -38 43
-75 243 -277 237 -238 281 -272 348 -272 69 1 109 32 361 286 213 215 247 254
253 287 17 92 -21 173 -99 208 -88 40 -146 20 -257 -88 l-79 -76 0 657 c0 635
-1 658 -20 696 -34 67 -112 104 -190 90z"/>
</g>
</svg>
