<svg version="1.0" xmlns="http://www.w3.org/2000/svg"
 width="512.000000pt" height="512.000000pt" viewBox="0 0 512.000000 512.000000"
 preserveAspectRatio="xMidYMid meet">

<g transform="translate(0.000000,512.000000) scale(0.100000,-0.100000)" stroke="none">
<path d="M363 5106 c-176 -43 -315 -187 -352 -364 -15 -74 -15 -1760 0 -1834
26 -121 44 -145 336 -439 l274 -275 254 -940 c141 -519 267 -966 282 -999 52
-111 171 -206 298 -240 114 -29 146 -24 645 109 l465 124 85 -82 c119 -112
235 -166 361 -166 69 0 174 30 229 64 80 50 1795 1768 1826 1828 76 148 69
336 -16 465 -24 37 -512 531 -1351 1369 -1004 1001 -1326 1317 -1365 1337
-112 58 -89 57 -1044 56 -663 0 -887 -4 -927 -13z m1804 -316 c37 -14 2588
-2563 2614 -2612 21 -42 24 -83 8 -125 -13 -37 -1663 -1689 -1711 -1714 -44
-23 -87 -24 -131 -5 -42 18 -2602 2581 -2617 2619 -7 19 -10 310 -10 875 0
817 1 849 20 890 15 33 29 47 62 62 41 19 73 20 890 20 565 0 856 -3 875 -10z
m136 -4287 c-217 -62 -698 -183 -726 -183 -45 0 -111 31 -131 63 -8 12 -94
315 -191 672 -97 358 -178 659 -181 670 -3 11 274 -259 615 -600 342 -341 618
-621 614 -622z"/>
<path d="M1003 4466 c-250 -61 -405 -311 -352 -568 38 -182 185 -329 367 -367
357 -74 657 244 564 600 -65 247 -324 397 -579 335z m195 -326 c108 -49 108
-231 0 -280 -54 -25 -102 -25 -156 0 -108 49 -108 231 0 280 24 11 59 20 78
20 19 0 54 -9 78 -20z"/>
</g>
</svg>
