<?xml version="1.0" standalone="no"?>
<!DOCTYPE svg PUBLIC "-//W3C//DTD SVG 20010904//EN">
<svg version="1.0" xmlns="http://www.w3.org/2000/svg"
 width="512.000000pt" height="512.000000pt" viewBox="0 0 512.000000 512.000000"
 preserveAspectRatio="xMidYMid meet">

<g transform="translate(0.000000,512.000000) scale(0.100000,-0.100000)" stroke="none">
<path d="M639 5106 c-72 -25 -123 -80 -145 -153 -22 -72 -21 -4717 1 -4790 16
-53 64 -111 118 -140 30 -17 141 -18 1947 -18 1806 0 1917 1 1947 18 18 9 48
33 67 53 71 73 66 -92 64 2149 -3 1946 -4 2021 -22 2055 -25 48 -762 786 -811
813 l-40 22 -1545 2 c-1252 2 -1552 0 -1581 -11z m2973 -528 c3 -388 3 -393
25 -424 45 -63 51 -64 472 -64 l381 0 0 -1941 0 -1941 -29 -29 -29 -29 -1872
0 -1872 0 -29 29 -29 29 0 2352 0 2352 29 29 29 29 1461 0 1460 0 3 -392z
m503 12 l350 -350 -353 0 -352 0 0 350 c0 193 1 350 3 350 1 0 160 -157 352
-350z"/>
<path d="M1253 3685 c-45 -19 -62 -58 -42 -93 8 -15 26 -32 39 -39 20 -10 302
-13 1308 -13 1396 0 1344 -2 1358 54 10 42 -3 72 -40 90 -31 14 -154 16 -1313
16 -1078 -1 -1283 -3 -1310 -15z"/>
<path d="M1237 3182 c-49 -30 -48 -91 3 -117 25 -13 197 -15 1328 -15 l1299 0
27 21 c36 28 36 80 0 108 l-27 21 -1301 0 c-1214 -1 -1303 -2 -1329 -18z"/>
<path d="M2215 3030 c-3 -5 -1 -10 4 -10 6 0 11 5 11 10 0 6 -2 10 -4 10 -3 0
-8 -4 -11 -10z"/>
<path d="M1243 2690 c-57 -34 -53 -94 7 -125 25 -13 187 -15 1310 -15 1161 0
1285 2 1316 16 59 28 59 100 0 128 -31 14 -155 16 -1318 16 -1258 0 -1284 0
-1315 -20z"/>
<path d="M1226 2185 c-35 -32 -34 -67 5 -99 l31 -26 1099 0 c946 0 1104 2
1128 15 49 25 56 82 15 114 -27 21 -29 21 -1139 21 l-1112 0 -27 -25z"/>
<path d="M3863 1985 c-29 -8 -72 -24 -95 -36 -52 -26 -843 -809 -892 -884 -60
-90 -79 -157 -79 -270 0 -77 5 -114 22 -159 77 -212 266 -337 491 -323 104 6
179 33 257 91 32 24 205 192 386 373 349 351 353 357 307 403 -47 47 -51 44
-425 -330 -405 -404 -406 -404 -555 -405 -77 0 -92 3 -152 33 -82 40 -149 111
-178 190 -17 46 -21 74 -18 142 5 144 2 139 477 612 382 382 420 416 463 428
108 29 216 -13 273 -104 25 -42 30 -59 30 -115 0 -46 -6 -78 -20 -106 -12 -25
-150 -171 -360 -381 -361 -361 -367 -366 -431 -339 -42 17 -64 51 -64 99 0 39
8 47 295 336 211 212 295 302 295 318 0 13 -11 34 -26 48 -19 20 -31 24 -52
19 -29 -7 -577 -545 -612 -601 -34 -54 -44 -126 -26 -189 37 -126 158 -195
288 -165 52 12 62 21 420 378 325 323 370 372 394 426 37 80 44 181 18 262
-56 179 -260 297 -431 249z"/>
<path d="M1260 1713 c-29 -11 -60 -47 -60 -70 0 -36 41 -70 91 -78 24 -3 371
-5 771 -3 l726 3 26 24 c41 38 34 91 -15 116 -24 13 -138 15 -776 14 -411 0
-755 -3 -763 -6z"/>
<path d="M1225 1195 c-34 -33 -32 -67 6 -99 l31 -26 511 0 c493 0 513 1 545
20 43 26 46 78 6 109 -26 21 -36 21 -551 21 l-524 0 -24 -25z"/>
</g>
</svg>
