<svg version="1.0" xmlns="http://www.w3.org/2000/svg"
 width="512.000000pt" height="512.000000pt" viewBox="0 0 512.000000 512.000000"
 preserveAspectRatio="xMidYMid meet">

<g transform="translate(0.000000,512.000000) scale(0.100000,-0.100000)" stroke="none">
<path d="M2505 5107 c-17 -8 -364 -273 -771 -590 -665 -516 -743 -579 -758
-616 -20 -53 -20 -76 3 -126 16 -35 122 -121 757 -615 441 -342 755 -580 779
-589 51 -18 104 -9 145 26 58 48 60 59 60 328 l0 245 38 0 c87 0 253 -72 374
-161 477 -354 517 -1061 84 -1467 -148 -138 -303 -214 -507 -248 -190 -32
-397 0 -570 86 -102 51 -154 87 -234 162 -170 159 -274 368 -296 598 -16 159
-18 167 -46 201 -51 60 -44 59 -604 59 -568 0 -554 2 -607 -68 -33 -44 -39
-115 -23 -290 98 -1037 869 -1855 1906 -2019 154 -24 487 -24 645 0 398 63
765 221 1073 464 93 73 287 267 360 360 193 244 336 532 412 828 55 213 69
332 69 570 1 231 -12 338 -65 549 -134 536 -474 1011 -944 1318 -305 200 -653
323 -997 354 l-68 6 0 267 c0 261 -1 269 -22 301 -13 18 -35 42 -49 53 -34 25
-105 31 -144 14z m-83 -864 c35 -63 68 -76 212 -85 305 -18 535 -77 786 -203
520 -261 886 -732 1014 -1306 128 -575 -22 -1186 -406 -1644 -255 -305 -606
-525 -993 -624 -175 -45 -262 -55 -475 -55 -212 0 -300 10 -473 54 -257 66
-518 196 -722 358 -394 315 -662 797 -710 1280 l-6 62 321 0 c176 0 320 -2
320 -4 0 -30 38 -187 62 -254 68 -193 156 -332 307 -483 188 -188 390 -298
651 -355 118 -26 380 -26 500 0 463 99 817 415 965 859 199 599 -82 1267 -649
1542 -176 86 -314 122 -496 131 -97 5 -108 3 -144 -18 -72 -42 -80 -69 -86
-269 l-5 -176 -500 389 c-275 214 -500 393 -500 398 0 4 225 183 500 398 l500
389 5 -176 c4 -141 8 -182 22 -208z"/>
</g>
</svg>
