<svg version="1.0" xmlns="http://www.w3.org/2000/svg"
 width="512.000000pt" height="512.000000pt" viewBox="0 0 512.000000 512.000000"
 preserveAspectRatio="xMidYMid meet">

<g transform="translate(0.000000,512.000000) scale(0.100000,-0.100000)" stroke="none">
<path d="M1439 4867 c-83 -31 -141 -100 -155 -184 l-6 -42 -197 -3 -198 -3
-49 -30 c-30 -19 -60 -49 -79 -79 l-30 -49 0 -2037 0 -2037 30 -49 c19 -30 49
-60 79 -79 l49 -30 1677 0 1677 0 49 30 c30 19 60 49 79 79 l30 49 0 2037 0
2037 -30 49 c-19 30 -49 60 -79 79 l-49 30 -199 3 c-183 3 -198 5 -198 21 0
41 -33 108 -72 148 -135 137 -376 63 -404 -123 l-6 -44 -278 0 -278 0 -6 44
c-10 62 -56 129 -113 163 -41 24 -59 28 -123 28 -64 0 -82 -4 -123 -28 -57
-34 -103 -101 -113 -163 l-6 -44 -278 0 -278 0 -6 44 c-10 62 -56 129 -111
161 -55 33 -150 43 -206 22z m136 -172 l25 -24 0 -271 0 -271 -25 -24 c-15
-16 -36 -25 -55 -25 -19 0 -40 9 -55 25 l-25 24 0 271 0 271 25 24 c15 16 36
25 55 25 19 0 40 -9 55 -25z m1040 0 l25 -24 0 -271 0 -271 -25 -24 c-15 -16
-36 -25 -55 -25 -19 0 -40 9 -55 25 l-25 24 0 271 0 271 25 24 c15 16 36 25
55 25 19 0 40 -9 55 -25z m1040 0 l25 -24 0 -271 0 -271 -25 -24 c-15 -16 -36
-25 -55 -25 -19 0 -40 9 -55 25 l-25 24 0 271 0 271 25 24 c15 16 36 25 55 25
19 0 40 -9 55 -25z m-2375 -291 l0 -77 -46 -49 c-211 -226 -110 -588 186 -664
126 -32 268 0 358 82 176 157 188 404 29 580 l-47 52 0 76 0 76 280 0 280 0 0
-76 0 -77 -46 -49 c-211 -226 -110 -588 186 -664 126 -32 268 0 358 82 176
157 188 404 29 580 l-47 52 0 76 0 76 280 0 280 0 0 -76 0 -77 -46 -49 c-211
-226 -110 -588 186 -664 126 -32 268 0 358 82 176 157 188 404 29 580 l-47 52
0 76 0 76 175 0 c173 0 176 0 200 -25 l25 -24 0 -496 0 -495 -1680 0 -1680 0
0 495 0 496 25 24 c24 25 27 25 200 25 l175 0 0 -76z m80 -414 c47 -47 100
-70 160 -70 60 0 113 23 160 70 25 25 50 54 56 65 11 18 12 17 19 -18 18 -93
-29 -195 -112 -244 -41 -24 -59 -28 -123 -28 -64 0 -82 4 -123 28 -83 49 -130
151 -112 244 7 35 8 36 19 18 6 -11 31 -40 56 -65z m1040 0 c47 -47 100 -70
160 -70 60 0 113 23 160 70 25 25 50 54 56 65 11 18 12 17 19 -18 18 -93 -29
-195 -112 -244 -41 -24 -59 -28 -123 -28 -64 0 -82 4 -123 28 -83 49 -130 151
-112 244 7 35 8 36 19 18 6 -11 31 -40 56 -65z m1040 0 c47 -47 100 -70 160
-70 60 0 113 23 160 70 25 25 50 54 56 65 11 18 12 17 19 -18 18 -93 -29 -195
-112 -244 -41 -24 -59 -28 -123 -28 -64 0 -82 4 -123 28 -83 49 -130 151 -112
244 7 35 8 36 19 18 6 -11 31 -40 56 -65z m800 -2020 c0 -720 -4 -1310 -8
-1310 -4 0 -264 56 -577 125 -314 69 -712 157 -885 195 -173 38 -529 116 -790
173 -261 58 -489 108 -506 112 -45 9 -80 -25 -98 -92 -57 -226 -344 -288 -461
-99 l-30 49 -3 1079 -2 1078 1680 0 1680 0 0 -1310z m-1345 -1176 c737 -163
1342 -298 1344 -300 2 -2 2 -6 0 -9 -3 -2 -250 34 -549 81 -597 93 -1321 205
-1865 289 -192 30 -365 57 -383 60 l-33 6 40 46 c22 25 48 62 58 84 10 21 25
39 33 39 8 0 618 -133 1355 -296z m-1795 5 c47 -6 648 -97 1335 -204 l1250
-193 -1378 -1 -1378 -1 -24 25 c-25 24 -25 24 -25 238 l0 213 68 -33 c48 -24
91 -36 152 -44z"/>
<path d="M2399 2945 c-413 -59 -824 -286 -1181 -652 -133 -136 -133 -138 -1
-274 290 -299 660 -528 991 -615 54 -14 157 -32 230 -40 121 -14 144 -14 257
0 218 29 369 76 578 183 216 111 408 253 605 448 163 162 163 157 15 308 -455
463 -1028 709 -1494 642z m351 -174 c93 -29 185 -86 260 -161 75 -76 121 -148
158 -252 23 -64 26 -88 26 -198 0 -110 -3 -134 -26 -198 -37 -104 -83 -176
-158 -252 -76 -76 -167 -132 -265 -163 -57 -18 -93 -22 -190 -22 -104 1 -130
5 -193 27 -104 37 -176 83 -252 158 -229 230 -253 573 -57 837 83 111 231 207
369 238 86 20 243 13 328 -14z m-889 -237 c-127 -221 -132 -494 -14 -728 19
-39 39 -77 45 -83 19 -23 -1 -14 -95 43 -134 82 -268 186 -382 296 l-100 97
65 66 c73 75 190 171 299 247 84 58 214 138 218 134 2 -2 -15 -34 -36 -72z
m1451 27 c136 -80 362 -256 462 -360 l40 -41 -30 -31 c-51 -54 -226 -202 -315
-266 -77 -56 -232 -153 -244 -153 -2 0 8 21 23 48 78 132 106 240 106 402 0
162 -28 270 -106 403 -15 26 -25 47 -23 47 2 0 42 -22 87 -49z"/>
<path d="M2452 2545 c-196 -55 -319 -250 -285 -450 44 -256 299 -397 548 -304
72 27 169 118 204 192 53 111 51 252 -5 364 -38 73 -127 155 -201 183 -75 28
-190 35 -261 15z m236 -182 c28 -17 58 -48 77 -77 27 -44 30 -58 30 -126 0
-68 -3 -82 -30 -126 -19 -30 -49 -60 -79 -79 -44 -27 -58 -30 -126 -30 -68 0
-82 3 -126 30 -30 19 -60 49 -79 79 -26 44 -30 58 -30 125 0 65 4 83 28 123
48 83 124 121 225 114 47 -3 75 -11 110 -33z"/>
</g>
</svg>
