<svg version="1.0" xmlns="http://www.w3.org/2000/svg"
 width="512.000000pt" height="512.000000pt" viewBox="0 0 512.000000 512.000000"
 preserveAspectRatio="xMidYMid meet">

<g transform="translate(0.000000,512.000000) scale(0.100000,-0.100000)" stroke="none">
<path d="M1185 4899 c-205 -30 -390 -166 -480 -354 -69 -145 -65 -22 -65
-1985 0 -1963 -4 -1840 65 -1985 59 -123 161 -226 288 -291 145 -74 35 -69
1567 -69 1299 0 1379 1 1439 18 186 53 333 174 415 342 69 139 66 76 66 1582
0 1515 3 1430 -71 1583 -41 83 -50 93 -498 543 -251 252 -484 479 -518 503
-34 25 -90 57 -125 71 -128 52 -142 52 -1118 51 -498 0 -932 -4 -965 -9z
m1805 -617 c0 -331 3 -419 15 -466 46 -177 181 -320 354 -378 63 -21 87 -22
489 -26 l422 -4 0 -1286 c0 -1380 0 -1364 -50 -1463 -28 -54 -111 -142 -164
-173 -101 -59 -26 -56 -1498 -56 -1330 0 -1349 0 -1409 20 -33 12 -77 31 -97
44 -50 32 -125 114 -152 166 -51 100 -50 48 -50 1900 0 1852 -1 1800 50 1900
27 53 102 135 155 168 99 63 62 61 1043 61 l892 1 0 -408z m269 338 c25 -16
245 -228 487 -472 381 -382 474 -483 474 -513 0 -3 -179 -5 -397 -3 -393 3
-399 3 -441 26 -66 35 -119 88 -149 150 l-28 57 -3 393 c-2 215 0 392 4 392 4
0 28 -13 53 -30z"/>
<path d="M1670 2553 c-30 -11 -60 -47 -66 -79 -5 -26 39 -167 216 -698 240
-721 234 -706 306 -706 51 0 82 19 103 64 10 23 88 249 172 504 85 254 156
462 159 462 3 0 74 -208 159 -462 84 -255 162 -481 172 -504 21 -45 52 -64
103 -64 72 0 66 -15 306 706 238 713 236 706 186 753 -58 54 -141 31 -174 -48
-11 -25 -88 -253 -172 -506 l-153 -460 -167 499 c-173 519 -177 527 -236 542
-13 3 -35 3 -48 0 -59 -15 -63 -23 -236 -542 l-167 -499 -153 460 c-84 253
-161 481 -172 506 -26 63 -82 92 -138 72z"/>
</g>
</svg>
